# xmcd CD database file
#
# Track frame offsets:
#	150
#	25277
#	63078
#	84275
#	123008
#	149733
#	179376
#	210108
#
# Disc length: 3238 seconds
#
# Revision: 0
# Processed by: cddbd v1.5.1PL0 Copyright (c) Steve Scherf et al.
# Submitted via: CDex 1.51
#
DISCID=610ca408
DTITLE=The New Talent Jazz Orchestra - The Sound Of New York Jazz - CD 01
DYEAR=2004
DGENRE=Jazz
TTITLE0=Jason Lindner - A Meditation On Two Chords
TTITLE1=Frank Carlberg - Heaven
TTITLE2=Magali Souriau - Petite Promenade
TTITLE3=Andrew Rathbun - Nine
TTITLE4=Guillermo Klein - Jumbo-Buen Dia Dia
TTITLE5=Taylor Haskins - Escondido
TTITLE6=Pablo Ablanedo - El Acecho
TTITLE7=Avi Lebovich - Noosh
EXTD=YEAR: 2004
EXTT0=
EXTT1=
EXTT2=
EXTT3=
EXTT4=
EXTT5=
EXTT6=
EXTT7=
PLAYORDER=
